<svg xmlns="http://www.w3.org/2000/svg" xmlns:xlink="http://www.w3.org/1999/xlink" viewBox="0 0 438.9 574.25"><defs><style>.cls-1,.cls-2,.cls-3,.cls-4,.cls-5,.cls-6{fill-rule:evenodd;}.cls-1{fill:url(#New_Gradient_Swatch);}.cls-2{fill:url(#New_Gradient_Swatch-2);}.cls-3{fill:url(#New_Gradient_Swatch-3);}.cls-4{fill:url(#New_Gradient_Swatch-4);}.cls-5{fill:url(#New_Gradient_Swatch-5);}.cls-6{fill:url(#New_Gradient_Swatch-6);}.cls-7{fill:#5d3267;}.cls-8{fill:none;stroke-miterlimit:10;stroke-width:15px;stroke:url(#New_Gradient_Swatch-7);}.cls-9{fill:#da3b3b;}</style><linearGradient id="New_Gradient_Swatch" y1="369.62" x2="39.87" y2="369.62" gradientUnits="userSpaceOnUse"><stop offset="0" stop-color="#fff173"/><stop offset="1" stop-color="#a89800"/></linearGradient><linearGradient id="New_Gradient_Swatch-2" x1="106.78" y1="98.55" x2="237.38" y2="98.55" xlink:href="#New_Gradient_Swatch"/><linearGradient id="New_Gradient_Swatch-3" x1="25.07" y1="455.01" x2="85.53" y2="455.01" xlink:href="#New_Gradient_Swatch"/><linearGradient id="New_Gradient_Swatch-4" x1="189.1" y1="152.95" x2="253.15" y2="152.95" xlink:href="#New_Gradient_Swatch"/><linearGradient id="New_Gradient_Swatch-5" x1="72.29" y1="497.55" x2="153.79" y2="497.55" xlink:href="#New_Gradient_Swatch"/><linearGradient id="New_Gradient_Swatch-6" x1="242.95" y1="233.69" x2="268.28" y2="233.69" xlink:href="#New_Gradient_Swatch"/><linearGradient id="New_Gradient_Swatch-7" x1="63.38" y1="223.98" x2="231.63" y2="392.23" xlink:href="#New_Gradient_Swatch"/></defs><title>logo_1</title><g id="Layer_2" data-name="Layer 2"><g id="Layer_1-2" data-name="Layer 1"><path class="cls-1" d="M18.2,435.72c-21.34-30.42-26-76-2.75-112q6.61-10.25,13.4-20.25c-.07,1.66-.1,3.34-.1,5a118,118,0,0,0,11.12,50.18C27.08,380.37,16.68,412,18.2,435.72Z"/><path class="cls-2" d="M229,94.94c-21.21,33.39-44.11,64.91-67.48,95.92a119.53,119.53,0,0,0-54.7,6.25c31.92-41.89,63.86-83.75,93.12-129C213.1,47.7,224.85,23.82,231.23,0,235.93,30.94,243.36,72.28,229,94.94Z"/><path class="cls-3" d="M71.73,529.25C26.49,509.45,15.06,448,33.47,413.78c5.65-10.47,12.35-21.54,19.82-33a119.36,119.36,0,0,0,32.24,28.95C78.79,419.39,72.25,429.15,66,439,49,465.84,56,510.55,71.73,529.25Z"/><path class="cls-4" d="M244.11,186.94c-5.78,10.94-12.06,21.75-18.74,32.46a118.32,118.32,0,0,0-36.27-21.78c9.47-13.16,18.05-25.7,25.31-37.34C227.29,139.61,240.7,111,246.05,86.5,255,119.78,256.64,163.2,244.11,186.94Z"/><path class="cls-5" d="M130,574.25c-33-.06-77.73-67.24-48-113.68,8.75-13.66,17.92-26.83,27.35-39.72A118.25,118.25,0,0,0,147.25,427q3.28,0,6.54-.18c-13.61,17.87-26.75,36.28-38.9,55.88C94.61,515.46,107.72,558.81,130,574.25Z"/><path class="cls-6" d="M262.62,281.3A118.07,118.07,0,0,0,243,238.6a137.23,137.23,0,0,0,15.38-52.52C265.29,215.46,274.35,257.66,262.62,281.3Z"/><path class="cls-7" d="M239.25,315.7a96.31,96.31,0,0,0,.29-11,89.09,89.09,0,0,0-1-10.65L220,290.94l-6.29-17.55,12.36-14.18a93.44,93.44,0,0,0-13.25-17.15L196,250.5,180.57,240l1.67-18.76a92.73,92.73,0,0,0-20.19-5.95L153.31,232l-18.66.44-9.58-16.24a93.76,93.76,0,0,0-20.46,7.23l2.75,18.64L92.53,253.41,75.25,246A93.41,93.41,0,0,0,63,263.81l13.15,13.45-5.29,17.88-18.37,4.13a94.33,94.33,0,0,0-.35,11.33A100.1,100.1,0,0,0,53,320.93l18.57,3.13,6.23,17.58L65.38,355.78A94.75,94.75,0,0,0,78.63,373l16.86-8.4,15.4,10.54-1.75,18.77A94.54,94.54,0,0,0,130,400.06l8.69-16.74,18.66-.51L166.91,399a94.31,94.31,0,0,0,20.44-7.31l-2.8-18.63,14.78-11.4,17.29,7.41a93.25,93.25,0,0,0,12.24-17.9L215.64,337.8l5.23-17.94Zm-93.42,48.56a56.58,56.58,0,1,1,56.57-56.58A56.58,56.58,0,0,1,145.83,364.26Z"/><circle class="cls-8" cx="147.51" cy="308.11" r="111.47"/><rect class="cls-9" x="139.81" y="260.19" width="13.06" height="94.99"/><rect class="cls-9" x="140.34" y="264.12" width="12" height="55.87" transform="translate(-145.71 438.39) rotate(-90)"/><path class="cls-7" d="M240.11,392.34H267v8.92h-9.05V426.5h-9V401.26h-8.87Z"/><path class="cls-7" d="M282.14,412.9a4.46,4.46,0,0,0,8.92,0V392.39h9V413a13.46,13.46,0,1,1-26.92,0V392.39h9Z"/><path class="cls-7" d="M328.86,403.67a8,8,0,0,0-5.73-2.23,8,8,0,1,0,0,16,7.83,7.83,0,0,0,5.73-2.27l6.37,6.27a17.05,17.05,0,1,1-.09-24.11Z"/><path class="cls-7" d="M339.78,426.5l15.92-34.11h4.05l16.06,34.11h-9L364.75,422h-14l-2.05,4.46Zm14.51-12h7l-3.46-7.5Z"/><path class="cls-7" d="M391.77,402.85a2.62,2.62,0,0,0-2.59-2.59,2.58,2.58,0,0,0-2.55,2.59,2.55,2.55,0,0,0,2.55,2.55,10.55,10.55,0,1,1-10.51,10.5h8a2.57,2.57,0,1,0,5.14.05,2.62,2.62,0,0,0-2.59-2.59,10.49,10.49,0,1,1,10.51-10.51Z"/><path class="cls-7" d="M402.88,426.5l15.92-34.11h4L438.9,426.5h-9L427.85,422h-14l-2,4.46Zm14.51-12h7l-3.46-7.5Z"/><path class="cls-9" d="M142.62,545.25l48.22-103.31H203.1l48.63,103.31H224.59l-6.34-13.5H176l-6.2,13.5Zm43.95-36.37h21.08l-10.47-22.72Z"/><path class="cls-9" d="M256.41,441.8h81.42v27H310.41v76.45H283.28V468.8H256.41Z"/><path class="cls-9" d="M417.59,476.1a24.12,24.12,0,0,0-17.36-6.75c-14.05,0-24.24,10.19-24.24,24.24s10.19,24.25,24.24,24.25c7,0,13.09-2.48,17.36-6.89l19.29,19a51.65,51.65,0,1,1-36.65-88,51.1,51.1,0,0,1,36.37,15Z"/><rect class="cls-7" x="145.83" y="559.79" width="292.42" height="14.46"/></g></g></svg>